<mxfile host="Electron" modified="2024-02-02T14:15:14.845Z" agent="Mozilla/5.0 (Windows NT 10.0; Win64; x64) AppleWebKit/537.36 (KHTML, like Gecko) draw.io/22.1.2 Chrome/114.0.5735.289 Electron/25.9.4 Safari/537.36" etag="q0Zq5JGttE6HIqg5V8KR" version="22.1.2" type="device">
  <diagram name="Page-1" id="f7byu5JzlVvKha74n_Q4">
    <mxGraphModel dx="2885" dy="1180" grid="1" gridSize="10" guides="1" tooltips="1" connect="1" arrows="1" fold="1" page="1" pageScale="1" pageWidth="827" pageHeight="1169" math="0" shadow="0">
      <root>
        <mxCell id="0" />
        <mxCell id="1" parent="0" />
        <mxCell id="6KCAMDxtT9omAEPZ4sAr-1" value="&lt;h1&gt;Skill tree&lt;/h1&gt;" style="text;html=1;strokeColor=none;fillColor=none;spacing=5;spacingTop=-20;whiteSpace=wrap;overflow=hidden;rounded=0;fontSize=20;fontFamily=Architects Daughter;" parent="1" vertex="1">
          <mxGeometry x="-320" y="369" width="200" height="80" as="geometry" />
        </mxCell>
        <mxCell id="6KCAMDxtT9omAEPZ4sAr-13" style="edgeStyle=orthogonalEdgeStyle;rounded=0;sketch=1;hachureGap=4;jiggle=2;curveFitting=1;orthogonalLoop=1;jettySize=auto;html=1;exitDx=0;exitDy=0;entryDx=0;entryDy=0;fontFamily=Architects Daughter;fontSource=https%3A%2F%2Ffonts.googleapis.com%2Fcss%3Ffamily%3DArchitects%2BDaughter;fontSize=16;orthogonal=1;entryX=0;entryY=0.5;" parent="1" source="6KCAMDxtT9omAEPZ4sAr-10" target="6KCAMDxtT9omAEPZ4sAr-12" edge="1">
          <mxGeometry relative="1" as="geometry" />
        </mxCell>
        <mxCell id="6KCAMDxtT9omAEPZ4sAr-15" style="edgeStyle=orthogonalEdgeStyle;rounded=0;sketch=1;hachureGap=4;jiggle=2;curveFitting=1;orthogonalLoop=1;jettySize=auto;html=1;exitDx=0;exitDy=0;entryDx=0;entryDy=0;fontFamily=Architects Daughter;fontSource=https%3A%2F%2Ffonts.googleapis.com%2Fcss%3Ffamily%3DArchitects%2BDaughter;fontSize=16;orthogonal=1;entryX=0;entryY=0.5;" parent="1" source="6KCAMDxtT9omAEPZ4sAr-10" target="6KCAMDxtT9omAEPZ4sAr-14" edge="1">
          <mxGeometry relative="1" as="geometry" />
        </mxCell>
        <mxCell id="6KCAMDxtT9omAEPZ4sAr-16" style="edgeStyle=orthogonalEdgeStyle;rounded=0;sketch=1;hachureGap=4;jiggle=2;curveFitting=1;orthogonalLoop=1;jettySize=auto;html=1;exitDx=0;exitDy=0;entryDx=0;entryDy=0;fontFamily=Architects Daughter;fontSource=https%3A%2F%2Ffonts.googleapis.com%2Fcss%3Ffamily%3DArchitects%2BDaughter;fontSize=16;orthogonal=1;entryX=0;entryY=0.5;" parent="1" source="6KCAMDxtT9omAEPZ4sAr-10" target="6KCAMDxtT9omAEPZ4sAr-11" edge="1">
          <mxGeometry relative="1" as="geometry" />
        </mxCell>
        <mxCell id="6KCAMDxtT9omAEPZ4sAr-18" style="edgeStyle=orthogonalEdgeStyle;rounded=0;sketch=1;hachureGap=4;jiggle=2;curveFitting=1;orthogonalLoop=1;jettySize=auto;html=1;exitDx=0;exitDy=0;entryDx=0;entryDy=0;fontFamily=Architects Daughter;fontSource=https%3A%2F%2Ffonts.googleapis.com%2Fcss%3Ffamily%3DArchitects%2BDaughter;fontSize=16;orthogonal=1;entryX=0;entryY=0.5;" parent="1" source="6KCAMDxtT9omAEPZ4sAr-10" target="6KCAMDxtT9omAEPZ4sAr-17" edge="1">
          <mxGeometry relative="1" as="geometry">
            <Array as="points">
              <mxPoint x="430" y="389" />
              <mxPoint x="430" y="750" />
              <mxPoint x="1000" y="750" />
              <mxPoint x="1000" y="753" />
            </Array>
          </mxGeometry>
        </mxCell>
        <mxCell id="6KCAMDxtT9omAEPZ4sAr-20" style="edgeStyle=orthogonalEdgeStyle;rounded=0;sketch=1;hachureGap=4;jiggle=2;curveFitting=1;orthogonalLoop=1;jettySize=auto;html=1;exitDx=0;exitDy=0;entryDx=0;entryDy=0;fontFamily=Architects Daughter;fontSource=https%3A%2F%2Ffonts.googleapis.com%2Fcss%3Ffamily%3DArchitects%2BDaughter;fontSize=16;orthogonal=1;entryX=0;entryY=0.5;" parent="1" source="6KCAMDxtT9omAEPZ4sAr-10" target="6KCAMDxtT9omAEPZ4sAr-19" edge="1">
          <mxGeometry relative="1" as="geometry" />
        </mxCell>
        <mxCell id="6KCAMDxtT9omAEPZ4sAr-55" style="edgeStyle=orthogonalEdgeStyle;rounded=0;sketch=1;hachureGap=4;jiggle=2;curveFitting=1;orthogonalLoop=1;jettySize=auto;html=1;entryDx=0;entryDy=0;fontFamily=Architects Daughter;fontSource=https%3A%2F%2Ffonts.googleapis.com%2Fcss%3Ffamily%3DArchitects%2BDaughter;fontSize=16;orthogonal=1;entryX=0;entryY=0.5;" parent="1" source="6KCAMDxtT9omAEPZ4sAr-10" target="6KCAMDxtT9omAEPZ4sAr-50" edge="1">
          <mxGeometry relative="1" as="geometry" />
        </mxCell>
        <mxCell id="6KCAMDxtT9omAEPZ4sAr-10" value="&lt;strike&gt;Popup windows&lt;br&gt;&lt;/strike&gt;&lt;span style=&quot;font-family: &amp;quot;Courier New&amp;quot;, monospace;&quot;&gt;★★★&lt;/span&gt;" style="rounded=0;whiteSpace=wrap;html=1;sketch=1;hachureGap=4;jiggle=2;curveFitting=1;fontFamily=Architects Daughter;fontSource=https%3A%2F%2Ffonts.googleapis.com%2Fcss%3Ffamily%3DArchitects%2BDaughter;fontSize=20;fillColor=#f5f5f5;strokeColor=#666666;fontColor=#333333;" parent="1" vertex="1">
          <mxGeometry x="204" y="359.00000000000045" width="180" height="60" as="geometry" />
        </mxCell>
        <mxCell id="6KCAMDxtT9omAEPZ4sAr-11" value="Modal dialogs&lt;br&gt;&lt;span style=&quot;font-family: &amp;quot;Courier New&amp;quot;, monospace;&quot;&gt;★&lt;/span&gt;★★" style="rounded=0;whiteSpace=wrap;html=1;sketch=1;hachureGap=4;jiggle=2;curveFitting=1;fontFamily=Architects Daughter;fontSource=https%3A%2F%2Ffonts.googleapis.com%2Fcss%3Ffamily%3DArchitects%2BDaughter;fontSize=20;fillColor=#f8cecc;strokeColor=#b85450;" parent="1" vertex="1">
          <mxGeometry x="484" y="359.0000000000002" width="180" height="60" as="geometry" />
        </mxCell>
        <mxCell id="6KCAMDxtT9omAEPZ4sAr-24" style="edgeStyle=orthogonalEdgeStyle;rounded=0;sketch=1;hachureGap=4;jiggle=2;curveFitting=1;orthogonalLoop=1;jettySize=auto;html=1;fontFamily=Architects Daughter;fontSource=https%3A%2F%2Ffonts.googleapis.com%2Fcss%3Ffamily%3DArchitects%2BDaughter;fontSize=16;orthogonal=1;entryX=0;entryY=0.5;entryDx=0;entryDy=0;" parent="1" source="6KCAMDxtT9omAEPZ4sAr-12" target="6KCAMDxtT9omAEPZ4sAr-23" edge="1">
          <mxGeometry relative="1" as="geometry" />
        </mxCell>
        <mxCell id="6KCAMDxtT9omAEPZ4sAr-12" value="Context menus&lt;br&gt;&lt;span style=&quot;font-family: &amp;quot;Courier New&amp;quot;, monospace;&quot;&gt;★★&lt;/span&gt;" style="rounded=0;whiteSpace=wrap;html=1;sketch=1;hachureGap=4;jiggle=2;curveFitting=1;fontFamily=Architects Daughter;fontSource=https%3A%2F%2Ffonts.googleapis.com%2Fcss%3Ffamily%3DArchitects%2BDaughter;fontSize=20;fillColor=#fff2cc;strokeColor=#d6b656;" parent="1" vertex="1">
          <mxGeometry x="484" y="639.0000000000002" width="180" height="60" as="geometry" />
        </mxCell>
        <mxCell id="6KCAMDxtT9omAEPZ4sAr-14" value="Color picker&lt;br&gt;&lt;span style=&quot;font-family: &amp;quot;Courier New&amp;quot;, monospace;&quot;&gt;★★&lt;/span&gt;★" style="rounded=0;whiteSpace=wrap;html=1;sketch=1;hachureGap=4;jiggle=2;curveFitting=1;fontFamily=Architects Daughter;fontSource=https%3A%2F%2Ffonts.googleapis.com%2Fcss%3Ffamily%3DArchitects%2BDaughter;fontSize=20;fillColor=#f8cecc;strokeColor=#b85450;" parent="1" vertex="1">
          <mxGeometry x="484" y="269.0000000000002" width="180" height="60" as="geometry" />
        </mxCell>
        <mxCell id="6KCAMDxtT9omAEPZ4sAr-17" value="Docking system&lt;br&gt;★&lt;span style=&quot;font-family: &amp;quot;Courier New&amp;quot;, monospace;&quot;&gt;★★&lt;/span&gt;★" style="rounded=0;whiteSpace=wrap;html=1;sketch=1;hachureGap=4;jiggle=2;curveFitting=1;fontFamily=Architects Daughter;fontSource=https%3A%2F%2Ffonts.googleapis.com%2Fcss%3Ffamily%3DArchitects%2BDaughter;fontSize=20;fillColor=#e1d5e7;strokeColor=#9673a6;shadow=0;" parent="1" vertex="1">
          <mxGeometry x="1100" y="723.0000000000002" width="180" height="60" as="geometry" />
        </mxCell>
        <mxCell id="6KCAMDxtT9omAEPZ4sAr-19" value="Tooltips&lt;br&gt;&lt;span style=&quot;font-family: &amp;quot;Courier New&amp;quot;, monospace;&quot;&gt;★★&lt;/span&gt;" style="rounded=0;whiteSpace=wrap;html=1;sketch=1;hachureGap=4;jiggle=2;curveFitting=1;fontFamily=Architects Daughter;fontSource=https%3A%2F%2Ffonts.googleapis.com%2Fcss%3Ffamily%3DArchitects%2BDaughter;fontSize=20;fillColor=#fff2cc;strokeColor=#d6b656;" parent="1" vertex="1">
          <mxGeometry x="484" y="449.0000000000002" width="180" height="60" as="geometry" />
        </mxCell>
        <mxCell id="6KCAMDxtT9omAEPZ4sAr-22" value="OS file picker&lt;br&gt;&lt;span style=&quot;font-family: &amp;quot;Courier New&amp;quot;, monospace;&quot;&gt;★★&lt;/span&gt;" style="rounded=0;whiteSpace=wrap;html=1;sketch=1;hachureGap=4;jiggle=2;curveFitting=1;fontFamily=Architects Daughter;fontSource=https%3A%2F%2Ffonts.googleapis.com%2Fcss%3Ffamily%3DArchitects%2BDaughter;fontSize=20;fillColor=#fff2cc;strokeColor=#d6b656;" parent="1" vertex="1">
          <mxGeometry x="450" y="1450" width="180" height="60" as="geometry" />
        </mxCell>
        <mxCell id="6KCAMDxtT9omAEPZ4sAr-23" value="Main menu&lt;br&gt;&lt;span style=&quot;font-family: &amp;quot;Courier New&amp;quot;, monospace;&quot;&gt;★★&lt;/span&gt;★" style="rounded=0;whiteSpace=wrap;html=1;sketch=1;hachureGap=4;jiggle=2;curveFitting=1;fontFamily=Architects Daughter;fontSource=https%3A%2F%2Ffonts.googleapis.com%2Fcss%3Ffamily%3DArchitects%2BDaughter;fontSize=20;fillColor=#f8cecc;strokeColor=#b85450;" parent="1" vertex="1">
          <mxGeometry x="764" y="639.0000000000002" width="180" height="60" as="geometry" />
        </mxCell>
        <mxCell id="6KCAMDxtT9omAEPZ4sAr-25" value="Group box&lt;br&gt;&lt;span style=&quot;font-family: &amp;quot;Courier New&amp;quot;, monospace;&quot;&gt;★&lt;/span&gt;" style="rounded=0;whiteSpace=wrap;html=1;sketch=1;hachureGap=4;jiggle=2;curveFitting=1;fontFamily=Architects Daughter;fontSource=https%3A%2F%2Ffonts.googleapis.com%2Fcss%3Ffamily%3DArchitects%2BDaughter;fontSize=20;fillColor=#d5e8d4;strokeColor=#82b366;" parent="1" vertex="1">
          <mxGeometry x="-330" y="500.0000000000002" width="180" height="60" as="geometry" />
        </mxCell>
        <mxCell id="6KCAMDxtT9omAEPZ4sAr-26" value="Form layout&lt;br&gt;&lt;span style=&quot;font-family: &amp;quot;Courier New&amp;quot;, monospace;&quot;&gt;★&lt;/span&gt;" style="rounded=0;whiteSpace=wrap;html=1;sketch=1;hachureGap=4;jiggle=2;curveFitting=1;fontFamily=Architects Daughter;fontSource=https%3A%2F%2Ffonts.googleapis.com%2Fcss%3Ffamily%3DArchitects%2BDaughter;fontSize=20;fillColor=#d5e8d4;strokeColor=#82b366;" parent="1" vertex="1">
          <mxGeometry x="-330" y="680.0000000000002" width="180" height="60" as="geometry" />
        </mxCell>
        <mxCell id="6KCAMDxtT9omAEPZ4sAr-28" style="edgeStyle=orthogonalEdgeStyle;rounded=0;sketch=1;hachureGap=4;jiggle=2;curveFitting=1;orthogonalLoop=1;jettySize=auto;html=1;entryDx=0;entryDy=0;fontFamily=Architects Daughter;fontSource=https%3A%2F%2Ffonts.googleapis.com%2Fcss%3Ffamily%3DArchitects%2BDaughter;fontSize=16;orthogonal=1;entryX=0;entryY=0.5;" parent="1" source="6KCAMDxtT9omAEPZ4sAr-27" target="6KCAMDxtT9omAEPZ4sAr-26" edge="1">
          <mxGeometry relative="1" as="geometry" />
        </mxCell>
        <mxCell id="6KCAMDxtT9omAEPZ4sAr-29" style="edgeStyle=orthogonalEdgeStyle;rounded=0;sketch=1;hachureGap=4;jiggle=2;curveFitting=1;orthogonalLoop=1;jettySize=auto;html=1;exitDx=0;exitDy=0;entryDx=0;entryDy=0;fontFamily=Architects Daughter;fontSource=https%3A%2F%2Ffonts.googleapis.com%2Fcss%3Ffamily%3DArchitects%2BDaughter;fontSize=16;orthogonal=1;entryX=0;entryY=0.5;" parent="1" source="6KCAMDxtT9omAEPZ4sAr-27" target="6KCAMDxtT9omAEPZ4sAr-25" edge="1">
          <mxGeometry relative="1" as="geometry" />
        </mxCell>
        <mxCell id="6KCAMDxtT9omAEPZ4sAr-56" style="edgeStyle=orthogonalEdgeStyle;rounded=0;sketch=1;hachureGap=4;jiggle=2;curveFitting=1;orthogonalLoop=1;jettySize=auto;html=1;entryX=0;entryY=0.5;entryDx=0;entryDy=0;fontFamily=Architects Daughter;fontSource=https%3A%2F%2Ffonts.googleapis.com%2Fcss%3Ffamily%3DArchitects%2BDaughter;fontSize=16;orthogonal=1;" parent="1" source="6KCAMDxtT9omAEPZ4sAr-27" target="6KCAMDxtT9omAEPZ4sAr-46" edge="1">
          <mxGeometry relative="1" as="geometry" />
        </mxCell>
        <mxCell id="6KCAMDxtT9omAEPZ4sAr-27" value="Relative layouts&lt;br&gt;&lt;span style=&quot;font-family: &amp;quot;Courier New&amp;quot;, monospace;&quot;&gt;★&lt;/span&gt;" style="rounded=0;whiteSpace=wrap;html=1;sketch=1;hachureGap=4;jiggle=2;curveFitting=1;fontFamily=Architects Daughter;fontSource=https%3A%2F%2Ffonts.googleapis.com%2Fcss%3Ffamily%3DArchitects%2BDaughter;fontSize=20;fillColor=#d5e8d4;strokeColor=#82b366;" parent="1" vertex="1">
          <mxGeometry x="-770" y="593.0000000000002" width="180" height="60" as="geometry" />
        </mxCell>
        <mxCell id="6KCAMDxtT9omAEPZ4sAr-61" style="edgeStyle=orthogonalEdgeStyle;rounded=0;sketch=1;hachureGap=4;jiggle=2;curveFitting=1;orthogonalLoop=1;jettySize=auto;html=1;fontFamily=Architects Daughter;fontSource=https%3A%2F%2Ffonts.googleapis.com%2Fcss%3Ffamily%3DArchitects%2BDaughter;fontSize=16;" parent="1" source="6KCAMDxtT9omAEPZ4sAr-30" target="6KCAMDxtT9omAEPZ4sAr-31" edge="1">
          <mxGeometry relative="1" as="geometry" />
        </mxCell>
        <mxCell id="6KCAMDxtT9omAEPZ4sAr-30" value="Simple spinner (numeric)&lt;br&gt;&lt;span style=&quot;font-family: &amp;quot;Courier New&amp;quot;, monospace;&quot;&gt;★&lt;/span&gt;" style="rounded=0;whiteSpace=wrap;html=1;sketch=1;hachureGap=4;jiggle=2;curveFitting=1;fontFamily=Architects Daughter;fontSource=https%3A%2F%2Ffonts.googleapis.com%2Fcss%3Ffamily%3DArchitects%2BDaughter;fontSize=20;fillColor=#d5e8d4;strokeColor=#82b366;" parent="1" vertex="1">
          <mxGeometry x="-30" y="1200" width="180" height="70" as="geometry" />
        </mxCell>
        <mxCell id="6KCAMDxtT9omAEPZ4sAr-79" style="edgeStyle=orthogonalEdgeStyle;rounded=0;sketch=1;hachureGap=4;jiggle=2;curveFitting=1;orthogonalLoop=1;jettySize=auto;html=1;entryX=0;entryY=0.5;entryDx=0;entryDy=0;fontFamily=Architects Daughter;fontSource=https%3A%2F%2Ffonts.googleapis.com%2Fcss%3Ffamily%3DArchitects%2BDaughter;fontSize=16;" parent="1" source="6KCAMDxtT9omAEPZ4sAr-31" target="6KCAMDxtT9omAEPZ4sAr-77" edge="1">
          <mxGeometry relative="1" as="geometry" />
        </mxCell>
        <mxCell id="6KCAMDxtT9omAEPZ4sAr-31" value="Numeric drags/sliders&lt;br&gt;&lt;span style=&quot;font-family: &amp;quot;Courier New&amp;quot;, monospace;&quot;&gt;★&lt;/span&gt;" style="rounded=0;whiteSpace=wrap;html=1;sketch=1;hachureGap=4;jiggle=2;curveFitting=1;fontFamily=Architects Daughter;fontSource=https%3A%2F%2Ffonts.googleapis.com%2Fcss%3Ffamily%3DArchitects%2BDaughter;fontSize=20;fillColor=#d5e8d4;strokeColor=#82b366;" parent="1" vertex="1">
          <mxGeometry x="180" y="1200" width="180" height="70" as="geometry" />
        </mxCell>
        <mxCell id="6KCAMDxtT9omAEPZ4sAr-32" value="Separator&lt;br&gt;&lt;span style=&quot;font-family: &amp;quot;Courier New&amp;quot;, monospace;&quot;&gt;★&lt;/span&gt;" style="rounded=0;whiteSpace=wrap;html=1;sketch=1;hachureGap=4;jiggle=2;curveFitting=1;fontFamily=Architects Daughter;fontSource=https%3A%2F%2Ffonts.googleapis.com%2Fcss%3Ffamily%3DArchitects%2BDaughter;fontSize=20;fillColor=#d5e8d4;strokeColor=#82b366;" parent="1" vertex="1">
          <mxGeometry x="34" y="1440" width="180" height="70" as="geometry" />
        </mxCell>
        <mxCell id="6KCAMDxtT9omAEPZ4sAr-35" style="edgeStyle=orthogonalEdgeStyle;rounded=0;sketch=1;hachureGap=4;jiggle=2;curveFitting=1;orthogonalLoop=1;jettySize=auto;html=1;entryX=0;entryY=0.75;entryDx=0;entryDy=0;fontFamily=Architects Daughter;fontSource=https%3A%2F%2Ffonts.googleapis.com%2Fcss%3Ffamily%3DArchitects%2BDaughter;fontSize=16;orthogonal=1;" parent="1" source="6KCAMDxtT9omAEPZ4sAr-33" target="6KCAMDxtT9omAEPZ4sAr-26" edge="1">
          <mxGeometry relative="1" as="geometry" />
        </mxCell>
        <mxCell id="6KCAMDxtT9omAEPZ4sAr-65" style="edgeStyle=orthogonalEdgeStyle;rounded=0;sketch=1;hachureGap=4;jiggle=2;curveFitting=1;orthogonalLoop=1;jettySize=auto;html=1;exitX=1;exitY=0.5;exitDx=0;exitDy=0;entryX=0;entryY=0.5;entryDx=0;entryDy=0;fontFamily=Architects Daughter;fontSource=https%3A%2F%2Ffonts.googleapis.com%2Fcss%3Ffamily%3DArchitects%2BDaughter;fontSize=16;" parent="1" source="6KCAMDxtT9omAEPZ4sAr-33" target="6KCAMDxtT9omAEPZ4sAr-63" edge="1">
          <mxGeometry relative="1" as="geometry" />
        </mxCell>
        <mxCell id="6KCAMDxtT9omAEPZ4sAr-71" style="edgeStyle=orthogonalEdgeStyle;rounded=0;sketch=1;hachureGap=4;jiggle=2;curveFitting=1;orthogonalLoop=1;jettySize=auto;html=1;exitX=1;exitY=0.5;exitDx=0;exitDy=0;entryX=0;entryY=0.5;entryDx=0;entryDy=0;fontFamily=Architects Daughter;fontSource=https%3A%2F%2Ffonts.googleapis.com%2Fcss%3Ffamily%3DArchitects%2BDaughter;fontSize=16;" parent="1" source="6KCAMDxtT9omAEPZ4sAr-33" target="6KCAMDxtT9omAEPZ4sAr-70" edge="1">
          <mxGeometry relative="1" as="geometry" />
        </mxCell>
        <mxCell id="6KCAMDxtT9omAEPZ4sAr-80" style="edgeStyle=orthogonalEdgeStyle;rounded=0;sketch=1;hachureGap=4;jiggle=2;curveFitting=1;orthogonalLoop=1;jettySize=auto;html=1;entryX=0;entryY=0.5;entryDx=0;entryDy=0;fontFamily=Architects Daughter;fontSource=https%3A%2F%2Ffonts.googleapis.com%2Fcss%3Ffamily%3DArchitects%2BDaughter;fontSize=16;" parent="1" source="6KCAMDxtT9omAEPZ4sAr-33" target="6KCAMDxtT9omAEPZ4sAr-30" edge="1">
          <mxGeometry relative="1" as="geometry">
            <Array as="points">
              <mxPoint x="-570" y="868" />
              <mxPoint x="-570" y="1235" />
            </Array>
          </mxGeometry>
        </mxCell>
        <mxCell id="6KCAMDxtT9omAEPZ4sAr-84" style="edgeStyle=orthogonalEdgeStyle;rounded=0;sketch=1;hachureGap=4;jiggle=2;curveFitting=1;orthogonalLoop=1;jettySize=auto;html=1;entryX=0;entryY=0.5;entryDx=0;entryDy=0;fontFamily=Architects Daughter;fontSource=https%3A%2F%2Ffonts.googleapis.com%2Fcss%3Ffamily%3DArchitects%2BDaughter;fontSize=16;" parent="1" source="6KCAMDxtT9omAEPZ4sAr-33" target="6KCAMDxtT9omAEPZ4sAr-82" edge="1">
          <mxGeometry relative="1" as="geometry" />
        </mxCell>
        <mxCell id="6KCAMDxtT9omAEPZ4sAr-33" value="&lt;strike&gt;Grid layout&lt;br&gt;&lt;/strike&gt;★★" style="rounded=0;whiteSpace=wrap;hachureGap=4;fontFamily=Architects Daughter;fontSource=https%3A%2F%2Ffonts.googleapis.com%2Fcss%3Ffamily%3DArchitects%2BDaughter;fontSize=20;fillColor=#f5f5f5;strokeColor=#666666;glass=0;shadow=0;html=1;fontColor=#333333;sketch=1;curveFitting=1;jiggle=2;" parent="1" vertex="1">
          <mxGeometry x="-790" y="838.0000000000002" width="180" height="60" as="geometry" />
        </mxCell>
        <mxCell id="6KCAMDxtT9omAEPZ4sAr-72" style="edgeStyle=orthogonalEdgeStyle;rounded=0;sketch=1;hachureGap=4;jiggle=2;curveFitting=1;orthogonalLoop=1;jettySize=auto;html=1;entryX=0;entryY=0.5;entryDx=0;entryDy=0;fontFamily=Architects Daughter;fontSource=https%3A%2F%2Ffonts.googleapis.com%2Fcss%3Ffamily%3DArchitects%2BDaughter;fontSize=16;" parent="1" source="6KCAMDxtT9omAEPZ4sAr-36" target="6KCAMDxtT9omAEPZ4sAr-47" edge="1">
          <mxGeometry relative="1" as="geometry" />
        </mxCell>
        <mxCell id="6KCAMDxtT9omAEPZ4sAr-75" style="edgeStyle=orthogonalEdgeStyle;rounded=0;sketch=1;hachureGap=4;jiggle=2;curveFitting=1;orthogonalLoop=1;jettySize=auto;html=1;exitX=0.5;exitY=0;exitDx=0;exitDy=0;entryX=0;entryY=0.5;entryDx=0;entryDy=0;fontFamily=Architects Daughter;fontSource=https%3A%2F%2Ffonts.googleapis.com%2Fcss%3Ffamily%3DArchitects%2BDaughter;fontSize=16;" parent="1" source="6KCAMDxtT9omAEPZ4sAr-36" target="6KCAMDxtT9omAEPZ4sAr-38" edge="1">
          <mxGeometry relative="1" as="geometry" />
        </mxCell>
        <mxCell id="6KCAMDxtT9omAEPZ4sAr-36" value="Rich text macro&lt;br&gt;&lt;span style=&quot;font-family: &amp;quot;Courier New&amp;quot;, monospace;&quot;&gt;★&lt;/span&gt;★" style="rounded=0;whiteSpace=wrap;html=1;sketch=1;hachureGap=4;jiggle=2;curveFitting=1;fontFamily=Architects Daughter;fontSource=https%3A%2F%2Ffonts.googleapis.com%2Fcss%3Ffamily%3DArchitects%2BDaughter;fontSize=20;fillColor=#fff2cc;strokeColor=#d6b656;" parent="1" vertex="1">
          <mxGeometry x="-68" y="1025.5000000000005" width="180" height="70" as="geometry" />
        </mxCell>
        <mxCell id="6KCAMDxtT9omAEPZ4sAr-39" style="edgeStyle=orthogonalEdgeStyle;rounded=0;sketch=1;hachureGap=4;jiggle=2;curveFitting=1;orthogonalLoop=1;jettySize=auto;html=1;entryX=0;entryY=0.75;entryDx=0;entryDy=0;fontFamily=Architects Daughter;fontSource=https%3A%2F%2Ffonts.googleapis.com%2Fcss%3Ffamily%3DArchitects%2BDaughter;fontSize=16;orthogonal=1;" parent="1" source="6KCAMDxtT9omAEPZ4sAr-38" target="6KCAMDxtT9omAEPZ4sAr-12" edge="1">
          <mxGeometry relative="1" as="geometry" />
        </mxCell>
        <mxCell id="6KCAMDxtT9omAEPZ4sAr-38" value="Icon font support&lt;br&gt;&lt;span style=&quot;font-family: &amp;quot;Courier New&amp;quot;, monospace;&quot;&gt;★&lt;/span&gt;★" style="rounded=0;whiteSpace=wrap;html=1;sketch=1;hachureGap=4;jiggle=2;curveFitting=1;fontFamily=Architects Daughter;fontSource=https%3A%2F%2Ffonts.googleapis.com%2Fcss%3Ffamily%3DArchitects%2BDaughter;fontSize=20;fillColor=#fff2cc;strokeColor=#d6b656;" parent="1" vertex="1">
          <mxGeometry x="92" y="910.0000000000005" width="180" height="70" as="geometry" />
        </mxCell>
        <mxCell id="6KCAMDxtT9omAEPZ4sAr-40" value="Disclosure groups&lt;br&gt;&lt;span style=&quot;font-family: &amp;quot;Courier New&amp;quot;, monospace;&quot;&gt;★&lt;/span&gt;" style="rounded=0;whiteSpace=wrap;html=1;sketch=1;hachureGap=4;jiggle=2;curveFitting=1;fontFamily=Architects Daughter;fontSource=https%3A%2F%2Ffonts.googleapis.com%2Fcss%3Ffamily%3DArchitects%2BDaughter;fontSize=20;fillColor=#d5e8d4;strokeColor=#82b366;" parent="1" vertex="1">
          <mxGeometry x="244" y="1445" width="180" height="60" as="geometry" />
        </mxCell>
        <mxCell id="6KCAMDxtT9omAEPZ4sAr-42" style="edgeStyle=orthogonalEdgeStyle;rounded=0;sketch=1;hachureGap=4;jiggle=2;curveFitting=1;orthogonalLoop=1;jettySize=auto;html=1;entryX=0;entryY=0.75;entryDx=0;entryDy=0;fontFamily=Architects Daughter;fontSource=https%3A%2F%2Ffonts.googleapis.com%2Fcss%3Ffamily%3DArchitects%2BDaughter;fontSize=16;orthogonal=1;" parent="1" source="6KCAMDxtT9omAEPZ4sAr-41" target="6KCAMDxtT9omAEPZ4sAr-17" edge="1">
          <mxGeometry relative="1" as="geometry" />
        </mxCell>
        <mxCell id="6KCAMDxtT9omAEPZ4sAr-41" value="Drag/drop&lt;br&gt;&lt;span style=&quot;font-family: &amp;quot;Courier New&amp;quot;, monospace;&quot;&gt;★&lt;/span&gt;★★" style="rounded=0;whiteSpace=wrap;html=1;sketch=1;hachureGap=4;jiggle=2;curveFitting=1;fontFamily=Architects Daughter;fontSource=https%3A%2F%2Ffonts.googleapis.com%2Fcss%3Ffamily%3DArchitects%2BDaughter;fontSize=20;fillColor=#f8cecc;strokeColor=#b85450;" parent="1" vertex="1">
          <mxGeometry x="460" y="793.0000000000005" width="180" height="60" as="geometry" />
        </mxCell>
        <mxCell id="6KCAMDxtT9omAEPZ4sAr-45" style="edgeStyle=orthogonalEdgeStyle;rounded=0;sketch=1;hachureGap=4;jiggle=2;curveFitting=1;orthogonalLoop=1;jettySize=auto;html=1;entryDx=0;entryDy=0;fontFamily=Architects Daughter;fontSource=https%3A%2F%2Ffonts.googleapis.com%2Fcss%3Ffamily%3DArchitects%2BDaughter;fontSize=16;orthogonal=1;" parent="1" source="6KCAMDxtT9omAEPZ4sAr-43" target="6KCAMDxtT9omAEPZ4sAr-44" edge="1">
          <mxGeometry relative="1" as="geometry" />
        </mxCell>
        <mxCell id="6KCAMDxtT9omAEPZ4sAr-43" value="Tab navigation&lt;br&gt;&lt;span style=&quot;font-family: &amp;quot;Courier New&amp;quot;, monospace;&quot;&gt;★&lt;/span&gt;★" style="rounded=0;whiteSpace=wrap;html=1;sketch=1;hachureGap=4;jiggle=2;curveFitting=1;fontFamily=Architects Daughter;fontSource=https%3A%2F%2Ffonts.googleapis.com%2Fcss%3Ffamily%3DArchitects%2BDaughter;fontSize=20;fillColor=#fff2cc;strokeColor=#d6b656;" parent="1" vertex="1">
          <mxGeometry x="-760" y="1320" width="180" height="70" as="geometry" />
        </mxCell>
        <mxCell id="6KCAMDxtT9omAEPZ4sAr-44" value="Keyboard navigation&lt;br&gt;&lt;span style=&quot;font-family: &amp;quot;Courier New&amp;quot;, monospace;&quot;&gt;★&lt;/span&gt;★★" style="rounded=0;whiteSpace=wrap;html=1;sketch=1;hachureGap=4;jiggle=2;curveFitting=1;fontFamily=Architects Daughter;fontSource=https%3A%2F%2Ffonts.googleapis.com%2Fcss%3Ffamily%3DArchitects%2BDaughter;fontSize=20;fillColor=#f8cecc;strokeColor=#b85450;" parent="1" vertex="1">
          <mxGeometry x="-500" y="1320" width="180" height="70" as="geometry" />
        </mxCell>
        <mxCell id="6KCAMDxtT9omAEPZ4sAr-46" value="Radio button&lt;br&gt;★" style="rounded=0;whiteSpace=wrap;html=1;sketch=1;hachureGap=4;jiggle=2;curveFitting=1;fontFamily=Architects Daughter;fontSource=https%3A%2F%2Ffonts.googleapis.com%2Fcss%3Ffamily%3DArchitects%2BDaughter;fontSize=20;fillColor=#d5e8d4;strokeColor=#82b366;" parent="1" vertex="1">
          <mxGeometry x="-330" y="584.0000000000002" width="180" height="70" as="geometry" />
        </mxCell>
        <mxCell id="6KCAMDxtT9omAEPZ4sAr-49" style="edgeStyle=orthogonalEdgeStyle;rounded=0;sketch=1;hachureGap=4;jiggle=2;curveFitting=1;orthogonalLoop=1;jettySize=auto;html=1;entryDx=0;entryDy=0;fontFamily=Architects Daughter;fontSource=https%3A%2F%2Ffonts.googleapis.com%2Fcss%3Ffamily%3DArchitects%2BDaughter;fontSize=16;orthogonal=1;" parent="1" source="6KCAMDxtT9omAEPZ4sAr-47" target="6KCAMDxtT9omAEPZ4sAr-48" edge="1">
          <mxGeometry relative="1" as="geometry" />
        </mxCell>
        <mxCell id="6KCAMDxtT9omAEPZ4sAr-76" style="edgeStyle=orthogonalEdgeStyle;rounded=0;sketch=1;hachureGap=4;jiggle=2;curveFitting=1;orthogonalLoop=1;jettySize=auto;html=1;exitX=1;exitY=0.25;exitDx=0;exitDy=0;entryX=0;entryY=0.75;entryDx=0;entryDy=0;fontFamily=Architects Daughter;fontSource=https%3A%2F%2Ffonts.googleapis.com%2Fcss%3Ffamily%3DArchitects%2BDaughter;fontSize=16;" parent="1" source="6KCAMDxtT9omAEPZ4sAr-47" target="6KCAMDxtT9omAEPZ4sAr-51" edge="1">
          <mxGeometry relative="1" as="geometry">
            <Array as="points">
              <mxPoint x="440" y="1043" />
              <mxPoint x="440" y="923" />
            </Array>
          </mxGeometry>
        </mxCell>
        <mxCell id="6KCAMDxtT9omAEPZ4sAr-78" style="edgeStyle=orthogonalEdgeStyle;rounded=0;sketch=1;hachureGap=4;jiggle=2;curveFitting=1;orthogonalLoop=1;jettySize=auto;html=1;exitX=1;exitY=0.75;exitDx=0;exitDy=0;entryX=0;entryY=0.25;entryDx=0;entryDy=0;fontFamily=Architects Daughter;fontSource=https%3A%2F%2Ffonts.googleapis.com%2Fcss%3Ffamily%3DArchitects%2BDaughter;fontSize=16;" parent="1" source="6KCAMDxtT9omAEPZ4sAr-47" target="6KCAMDxtT9omAEPZ4sAr-77" edge="1">
          <mxGeometry relative="1" as="geometry" />
        </mxCell>
        <mxCell id="6KCAMDxtT9omAEPZ4sAr-47" value="Single-line text input&lt;br&gt;&lt;span style=&quot;font-family: &amp;quot;Courier New&amp;quot;, monospace;&quot;&gt;★&lt;/span&gt;★" style="rounded=0;whiteSpace=wrap;html=1;sketch=1;hachureGap=4;jiggle=2;curveFitting=1;fontFamily=Architects Daughter;fontSource=https%3A%2F%2Ffonts.googleapis.com%2Fcss%3Ffamily%3DArchitects%2BDaughter;fontSize=20;fillColor=#fff2cc;strokeColor=#d6b656;" parent="1" vertex="1">
          <mxGeometry x="225" y="1025.5000000000002" width="180" height="70" as="geometry" />
        </mxCell>
        <mxCell id="6KCAMDxtT9omAEPZ4sAr-48" value="Multiline text input&lt;br&gt;★&lt;span style=&quot;font-family: &amp;quot;Courier New&amp;quot;, monospace;&quot;&gt;★&lt;/span&gt;★" style="rounded=0;whiteSpace=wrap;html=1;sketch=1;hachureGap=4;jiggle=2;curveFitting=1;fontFamily=Architects Daughter;fontSource=https%3A%2F%2Ffonts.googleapis.com%2Fcss%3Ffamily%3DArchitects%2BDaughter;fontSize=20;fillColor=#f8cecc;strokeColor=#b85450;" parent="1" vertex="1">
          <mxGeometry x="476" y="1025.5000000000002" width="180" height="70" as="geometry" />
        </mxCell>
        <mxCell id="6KCAMDxtT9omAEPZ4sAr-54" style="edgeStyle=orthogonalEdgeStyle;rounded=0;sketch=1;hachureGap=4;jiggle=2;curveFitting=1;orthogonalLoop=1;jettySize=auto;html=1;exitX=1;exitY=0.75;exitDx=0;exitDy=0;entryX=0;entryY=0.25;entryDx=0;entryDy=0;fontFamily=Architects Daughter;fontSource=https%3A%2F%2Ffonts.googleapis.com%2Fcss%3Ffamily%3DArchitects%2BDaughter;fontSize=16;orthogonal=1;" parent="1" source="6KCAMDxtT9omAEPZ4sAr-50" target="6KCAMDxtT9omAEPZ4sAr-51" edge="1">
          <mxGeometry relative="1" as="geometry" />
        </mxCell>
        <mxCell id="6KCAMDxtT9omAEPZ4sAr-50" value="Pull downs&lt;br&gt;&lt;span style=&quot;font-family: &amp;quot;Courier New&amp;quot;, monospace;&quot;&gt;★&lt;/span&gt;★" style="rounded=0;whiteSpace=wrap;html=1;sketch=1;hachureGap=4;jiggle=2;curveFitting=1;fontFamily=Architects Daughter;fontSource=https%3A%2F%2Ffonts.googleapis.com%2Fcss%3Ffamily%3DArchitects%2BDaughter;fontSize=20;fillColor=#fff2cc;strokeColor=#d6b656;" parent="1" vertex="1">
          <mxGeometry x="484" y="539.0000000000002" width="180" height="70" as="geometry" />
        </mxCell>
        <mxCell id="6KCAMDxtT9omAEPZ4sAr-58" style="edgeStyle=orthogonalEdgeStyle;rounded=0;sketch=1;hachureGap=4;jiggle=2;curveFitting=1;orthogonalLoop=1;jettySize=auto;html=1;entryX=0;entryY=0.5;entryDx=0;entryDy=0;fontFamily=Architects Daughter;fontSource=https%3A%2F%2Ffonts.googleapis.com%2Fcss%3Ffamily%3DArchitects%2BDaughter;fontSize=16;orthogonal=1;" parent="1" source="6KCAMDxtT9omAEPZ4sAr-51" target="6KCAMDxtT9omAEPZ4sAr-57" edge="1">
          <mxGeometry relative="1" as="geometry" />
        </mxCell>
        <mxCell id="6KCAMDxtT9omAEPZ4sAr-51" value="Combo box&lt;br&gt;&lt;span style=&quot;font-family: &amp;quot;Courier New&amp;quot;, monospace;&quot;&gt;★&lt;/span&gt;★★" style="rounded=0;whiteSpace=wrap;html=1;sketch=1;hachureGap=4;jiggle=2;curveFitting=1;fontFamily=Architects Daughter;fontSource=https%3A%2F%2Ffonts.googleapis.com%2Fcss%3Ffamily%3DArchitects%2BDaughter;fontSize=20;fillColor=#f8cecc;strokeColor=#b85450;" parent="1" vertex="1">
          <mxGeometry x="764" y="870.0028395061729" width="180" height="70" as="geometry" />
        </mxCell>
        <mxCell id="6KCAMDxtT9omAEPZ4sAr-57" value="Combo box with&lt;br&gt;autocomplete&lt;br&gt;&lt;span style=&quot;font-family: &amp;quot;Courier New&amp;quot;, monospace;&quot;&gt;★&lt;/span&gt;★★" style="rounded=0;whiteSpace=wrap;html=1;sketch=1;hachureGap=4;jiggle=2;curveFitting=1;fontFamily=Architects Daughter;fontSource=https%3A%2F%2Ffonts.googleapis.com%2Fcss%3Ffamily%3DArchitects%2BDaughter;fontSize=20;fillColor=#fff2cc;strokeColor=#d6b656;" parent="1" vertex="1">
          <mxGeometry x="1031" y="870.0028395061729" width="180" height="70" as="geometry" />
        </mxCell>
        <mxCell id="6KCAMDxtT9omAEPZ4sAr-62" value="Advanced tables&lt;br&gt;&lt;span style=&quot;font-family: &amp;quot;Courier New&amp;quot;, monospace;&quot;&gt;★★&lt;/span&gt;★" style="rounded=0;whiteSpace=wrap;html=1;sketch=1;hachureGap=4;jiggle=2;curveFitting=1;fontFamily=Architects Daughter;fontSource=https%3A%2F%2Ffonts.googleapis.com%2Fcss%3Ffamily%3DArchitects%2BDaughter;fontSize=20;fillColor=#f8cecc;strokeColor=#b85450;" parent="1" vertex="1">
          <mxGeometry x="-339" y="929.0000000000002" width="180" height="60" as="geometry" />
        </mxCell>
        <mxCell id="6KCAMDxtT9omAEPZ4sAr-64" style="edgeStyle=orthogonalEdgeStyle;rounded=0;sketch=1;hachureGap=4;jiggle=2;curveFitting=1;orthogonalLoop=1;jettySize=auto;html=1;exitX=1;exitY=0.5;exitDx=0;exitDy=0;entryX=0;entryY=0.5;entryDx=0;entryDy=0;fontFamily=Architects Daughter;fontSource=https%3A%2F%2Ffonts.googleapis.com%2Fcss%3Ffamily%3DArchitects%2BDaughter;fontSize=16;" parent="1" source="6KCAMDxtT9omAEPZ4sAr-63" target="6KCAMDxtT9omAEPZ4sAr-62" edge="1">
          <mxGeometry relative="1" as="geometry" />
        </mxCell>
        <mxCell id="6KCAMDxtT9omAEPZ4sAr-63" value="Tables&lt;br&gt;&lt;span style=&quot;font-family: &amp;quot;Courier New&amp;quot;, monospace;&quot;&gt;★★&lt;/span&gt;★" style="rounded=0;whiteSpace=wrap;html=1;sketch=1;hachureGap=4;jiggle=2;curveFitting=1;fontFamily=Architects Daughter;fontSource=https%3A%2F%2Ffonts.googleapis.com%2Fcss%3Ffamily%3DArchitects%2BDaughter;fontSize=20;fillColor=#fff2cc;strokeColor=#d6b656;" parent="1" vertex="1">
          <mxGeometry x="-539" y="929.0000000000002" width="180" height="60" as="geometry" />
        </mxCell>
        <mxCell id="6KCAMDxtT9omAEPZ4sAr-68" style="edgeStyle=orthogonalEdgeStyle;rounded=0;sketch=1;hachureGap=4;jiggle=2;curveFitting=1;orthogonalLoop=1;jettySize=auto;html=1;entryX=0;entryY=0.5;entryDx=0;entryDy=0;fontFamily=Architects Daughter;fontSource=https%3A%2F%2Ffonts.googleapis.com%2Fcss%3Ffamily%3DArchitects%2BDaughter;fontSize=16;" parent="1" source="6KCAMDxtT9omAEPZ4sAr-66" target="6KCAMDxtT9omAEPZ4sAr-67" edge="1">
          <mxGeometry relative="1" as="geometry" />
        </mxCell>
        <mxCell id="6KCAMDxtT9omAEPZ4sAr-66" value="Image widgets&lt;br&gt;&lt;span style=&quot;font-family: &amp;quot;Courier New&amp;quot;, monospace;&quot;&gt;★&lt;/span&gt;★" style="rounded=0;whiteSpace=wrap;html=1;sketch=1;hachureGap=4;jiggle=2;curveFitting=1;fontFamily=Architects Daughter;fontSource=https%3A%2F%2Ffonts.googleapis.com%2Fcss%3Ffamily%3DArchitects%2BDaughter;fontSize=20;fillColor=#fff2cc;strokeColor=#d6b656;" parent="1" vertex="1">
          <mxGeometry x="-60" y="609.0000000000005" width="180" height="70" as="geometry" />
        </mxCell>
        <mxCell id="6KCAMDxtT9omAEPZ4sAr-67" value="Toolbars&lt;br&gt;&lt;span style=&quot;font-family: &amp;quot;Courier New&amp;quot;, monospace;&quot;&gt;★&lt;/span&gt;★" style="rounded=0;whiteSpace=wrap;html=1;sketch=1;hachureGap=4;jiggle=2;curveFitting=1;fontFamily=Architects Daughter;fontSource=https%3A%2F%2Ffonts.googleapis.com%2Fcss%3Ffamily%3DArchitects%2BDaughter;fontSize=20;fillColor=#fff2cc;strokeColor=#d6b656;" parent="1" vertex="1">
          <mxGeometry x="170" y="609.0000000000005" width="180" height="70" as="geometry" />
        </mxCell>
        <mxCell id="6KCAMDxtT9omAEPZ4sAr-69" style="edgeStyle=orthogonalEdgeStyle;rounded=0;sketch=1;hachureGap=4;jiggle=2;curveFitting=1;orthogonalLoop=1;jettySize=auto;html=1;entryX=0;entryY=0.09;entryDx=0;entryDy=0;entryPerimeter=0;fontFamily=Architects Daughter;fontSource=https%3A%2F%2Ffonts.googleapis.com%2Fcss%3Ffamily%3DArchitects%2BDaughter;fontSize=16;" parent="1" source="6KCAMDxtT9omAEPZ4sAr-67" target="6KCAMDxtT9omAEPZ4sAr-12" edge="1">
          <mxGeometry relative="1" as="geometry" />
        </mxCell>
        <mxCell id="6KCAMDxtT9omAEPZ4sAr-70" value="Scroll views&lt;br&gt;&lt;span style=&quot;font-family: &amp;quot;Courier New&amp;quot;, monospace;&quot;&gt;★&lt;/span&gt;★★" style="rounded=0;whiteSpace=wrap;html=1;sketch=1;hachureGap=4;jiggle=2;curveFitting=1;fontFamily=Architects Daughter;fontSource=https%3A%2F%2Ffonts.googleapis.com%2Fcss%3Ffamily%3DArchitects%2BDaughter;fontSize=20;fillColor=#f8cecc;strokeColor=#b85450;" parent="1" vertex="1">
          <mxGeometry x="-539" y="1009" width="180" height="70" as="geometry" />
        </mxCell>
        <mxCell id="6KCAMDxtT9omAEPZ4sAr-77" value="Advanced numeric inputs&lt;br&gt;&lt;span style=&quot;font-family: &amp;quot;Courier New&amp;quot;, monospace;&quot;&gt;★&lt;/span&gt;★" style="rounded=0;whiteSpace=wrap;html=1;sketch=1;hachureGap=4;jiggle=2;curveFitting=1;fontFamily=Architects Daughter;fontSource=https%3A%2F%2Ffonts.googleapis.com%2Fcss%3Ffamily%3DArchitects%2BDaughter;fontSize=20;fillColor=#fff2cc;strokeColor=#d6b656;" parent="1" vertex="1">
          <mxGeometry x="450" y="1200.0000000000002" width="180" height="70" as="geometry" />
        </mxCell>
        <mxCell id="6KCAMDxtT9omAEPZ4sAr-81" value="Rive integration&lt;br&gt;★&lt;span style=&quot;font-family: &amp;quot;Courier New&amp;quot;, monospace;&quot;&gt;★★&lt;/span&gt;★" style="rounded=0;whiteSpace=wrap;html=1;sketch=1;hachureGap=4;jiggle=2;curveFitting=1;fontFamily=Architects Daughter;fontSource=https%3A%2F%2Ffonts.googleapis.com%2Fcss%3Ffamily%3DArchitects%2BDaughter;fontSize=20;fillColor=#e1d5e7;strokeColor=#9673a6;shadow=0;" parent="1" vertex="1">
          <mxGeometry x="1120" y="555.0000000000002" width="180" height="60" as="geometry" />
        </mxCell>
        <mxCell id="6KCAMDxtT9omAEPZ4sAr-83" style="edgeStyle=orthogonalEdgeStyle;rounded=0;sketch=1;hachureGap=4;jiggle=2;curveFitting=1;orthogonalLoop=1;jettySize=auto;html=1;entryX=0;entryY=0.25;entryDx=0;entryDy=0;fontFamily=Architects Daughter;fontSource=https%3A%2F%2Ffonts.googleapis.com%2Fcss%3Ffamily%3DArchitects%2BDaughter;fontSize=16;" parent="1" source="6KCAMDxtT9omAEPZ4sAr-82" target="6KCAMDxtT9omAEPZ4sAr-17" edge="1">
          <mxGeometry relative="1" as="geometry" />
        </mxCell>
        <mxCell id="6KCAMDxtT9omAEPZ4sAr-82" value="Tab view&lt;br&gt;&lt;span style=&quot;font-family: &amp;quot;Courier New&amp;quot;, monospace;&quot;&gt;★★&lt;/span&gt;" style="rounded=0;whiteSpace=wrap;html=1;sketch=1;hachureGap=4;jiggle=2;curveFitting=1;fontFamily=Architects Daughter;fontSource=https%3A%2F%2Ffonts.googleapis.com%2Fcss%3Ffamily%3DArchitects%2BDaughter;fontSize=20;fillColor=#fff2cc;strokeColor=#d6b656;" parent="1" vertex="1">
          <mxGeometry x="-140" y="760.0000000000002" width="180" height="60" as="geometry" />
        </mxCell>
      </root>
    </mxGraphModel>
  </diagram>
</mxfile>
